<svg width="740" height="520" viewBox="0 0 740 520" fill="none" xmlns="http://www.w3.org/2000/svg">
  <defs>
    <linearGradient id="bg" x1="73" y1="40" x2="660" y2="450" gradientUnits="userSpaceOnUse">
      <stop stop-color="#E7F4FF"/>
      <stop offset="1" stop-color="#D9E9FF"/>
    </linearGradient>
    <linearGradient id="accent" x1="316" y1="120" x2="430" y2="384" gradientUnits="userSpaceOnUse">
      <stop stop-color="#0E4C92"/>
      <stop offset="1" stop-color="#1E6FB9"/>
    </linearGradient>
  </defs>
  <rect x="36" y="24" width="668" height="472" rx="30" fill="url(#bg)"/>
  <rect x="96" y="94" width="246" height="332" rx="20" fill="white"/>
  <rect x="122" y="124" width="194" height="14" rx="7" fill="#BBD5EF"/>
  <rect x="122" y="156" width="164" height="10" rx="5" fill="#D2E3F4"/>
  <rect x="122" y="178" width="178" height="10" rx="5" fill="#D2E3F4"/>
  <rect x="122" y="200" width="152" height="10" rx="5" fill="#D2E3F4"/>
  <rect x="122" y="244" width="54" height="54" rx="12" fill="#E5F0FB"/>
  <rect x="188" y="244" width="54" height="54" rx="12" fill="#E5F0FB"/>
  <rect x="254" y="244" width="54" height="54" rx="12" fill="#E5F0FB"/>
  <rect x="122" y="318" width="186" height="78" rx="14" fill="#EEF6FD"/>

  <rect x="388" y="88" width="255" height="344" rx="24" fill="white"/>
  <rect x="433" y="126" width="164" height="22" rx="11" fill="#D9E8F8"/>
  <rect x="433" y="162" width="98" height="98" rx="26" fill="url(#accent)"/>
  <rect x="548" y="162" width="52" height="10" rx="5" fill="#C6DCEF"/>
  <rect x="548" y="182" width="70" height="10" rx="5" fill="#D3E4F4"/>
  <rect x="548" y="202" width="60" height="10" rx="5" fill="#D3E4F4"/>
  <rect x="433" y="282" width="186" height="14" rx="7" fill="#BFD8ED"/>
  <rect x="433" y="308" width="166" height="10" rx="5" fill="#D5E6F5"/>
  <rect x="433" y="330" width="174" height="10" rx="5" fill="#D5E6F5"/>
  <rect x="433" y="352" width="148" height="10" rx="5" fill="#D5E6F5"/>

  <circle cx="482" cy="210" r="24" fill="#8CC7FF"/>
  <path d="M476 209L482 215L492 203" stroke="white" stroke-width="5" stroke-linecap="round" stroke-linejoin="round"/>
</svg>
